<svg width="20" height="30" viewBox="0 0 20 30" fill="none" xmlns="http://www.w3.org/2000/svg">
<path d="M13.0745 0.0107777C13.0864 0.00328629 13.1003 -0.00045019 13.1144 4.32694e-05C13.1284 0.000536728 13.142 0.00523789 13.1534 0.013549C13.1649 0.0218601 13.1736 0.0334055 13.1784 0.0467176C13.1833 0.0600296 13.1842 0.0745064 13.1809 0.0883077C12.903 1.19759 11.5371 7.62067 16.4744 11.7894C20.7915 16.4712 21.0138 21.1803 17.8521 26.1027C13.1809 31.047 6.45124 30.15 2.92187 26.9197C1.00416 24.544 -2.88659 17.7046 3.58412 11.1274C3.58963 11.12 3.59677 11.114 3.60498 11.1099C3.61319 11.1057 3.6365 11.0831 3.64568 11.0831C3.65486 11.0831 3.66391 11.0853 3.67212 11.0894C3.67212 11.0894 3.68747 11.0996 3.69298 11.107C3.86446 11.8405 4.28236 14.6415 7.45172 15.2379C7.59954 15.2379 7.63384 15.1508 7.56288 15.0137C6.62863 13.1887 3.2116 5.75994 13.0745 0.0107777Z" fill="#FA742C"/>
<path d="M8.38165 11.6672C8.37447 11.6626 8.36613 11.6603 8.35769 11.6606C8.34925 11.6609 8.34108 11.6638 8.33423 11.6688C8.32738 11.6739 8.32216 11.6809 8.31923 11.6889C8.31629 11.697 8.31578 11.7058 8.31776 11.7142C8.48459 12.387 9.30452 16.2828 6.34069 18.8113C3.74921 21.651 3.61575 24.5073 5.51366 27.4928C8.31776 30.4918 12.3575 29.9477 14.4761 27.9884C15.6273 26.5474 17.9629 22.3991 14.0786 18.4098C14.0753 18.4053 14.071 18.4017 14.0661 18.3991C14.0611 18.3966 14.0472 18.3829 14.0416 18.3829C14.0361 18.3829 14.0307 18.3842 14.0258 18.3868C14.0258 18.3868 14.0166 18.3929 14.0132 18.3974C13.9103 18.8423 13.6594 20.5412 11.7569 20.903C11.6682 20.903 11.6476 20.8502 11.6902 20.767C12.251 19.6601 14.3022 15.1542 8.38165 11.6672Z" fill="#FAD541"/>
<path d="M11.2523 19.5128C11.2563 19.5102 11.261 19.5089 11.2657 19.5091C11.2703 19.5093 11.2749 19.5109 11.2787 19.5137C11.2825 19.5166 11.2854 19.5205 11.287 19.525C11.2887 19.5296 11.2889 19.5345 11.2878 19.5392C11.1952 19.9177 10.7396 22.1091 12.3862 23.5314C13.8259 25.1287 13.9001 26.7353 12.8457 28.4147C11.2878 30.1016 9.04354 29.7956 7.86652 28.6935C7.22697 27.8829 5.92943 25.5495 8.08737 23.3055C8.08921 23.303 8.09159 23.3009 8.09433 23.2995C8.09707 23.2981 8.10484 23.2904 8.1079 23.2904C8.11096 23.2904 8.11398 23.2911 8.11672 23.2926C8.11672 23.2926 8.12184 23.296 8.12368 23.2985C8.18086 23.5488 8.32023 24.5044 9.37719 24.7079C9.42649 24.7079 9.43793 24.6782 9.41426 24.6314C9.1027 24.0088 7.96314 21.4743 11.2523 19.5128Z" fill="#FFFFC7"/>
</svg>
